<svg xmlns="http://www.w3.org/2000/svg" viewBox="0 0 544 156"><title>rgb_logo_vector</title><g style="isolation:isolate"><path d="M537,0H7A7,7,0,0,0,0,7V149a7,7,0,0,0,7,7H537a7,7,0,0,0,7-7V7A7,7,0,0,0,537,0Zm3,147a5,5,0,0,1-5,5H9a5,5,0,0,1-5-5V9A5,5,0,0,1,9,4H535a5,5,0,0,1,5,5Z" style="fill:#ffde00;fill-rule:evenodd"/></g><g style="isolation:isolate"><path d="M162.6068,75.0839a8.5987,8.5987,0,0,0-2.7477-2.1792,8.9543,8.9543,0,0,0-4.1216-.8527,9.4806,9.4806,0,0,0-4.074.8054,8.4306,8.4306,0,0,0-2.8425,2.1317,9.5437,9.5437,0,0,0-1.7528,3.0794,20.15,20.15,0,0,0-.9,3.553h18.6653a14.6569,14.6569,0,0,0-.6159-3.5057A8.7865,8.7865,0,0,0,162.6068,75.0839ZM536,3H91.111a85.5264,85.5264,0,0,1,26.5047,36.6154,51.3928,51.3928,0,0,0-41.92-6.7883A52.6981,52.6981,0,0,0,38.7345,97.1,51.8948,51.8948,0,0,0,89.0018,136l3.3051,0,0,0H541V8A5,5,0,0,0,536,3ZM123.7348,90.1014q-2.1386,6.4908-4.1808,11.9856t-3.7529,9.4747H104.81q-2.3694-7.1994-4.6426-14.3069-2.274-7.106-4.1689-14.3068-1.8965,7.2015-4.0268,14.3068t-4.5005,14.3069H76.4809q-1.71-3.9794-3.7055-9.4747T68.642,90.1014Q66.5036,83.6126,64.27,76.363T59.9474,61.7244H74.8228q.7617,3.411,1.6669,7.4378t1.9068,8.29q1.0015,4.2636,2.0978,8.5746,1.0948,4.3125,2.24,8.2905,1.23-4.1682,2.4161-8.5273,1.1835-4.3569,2.274-8.5746,1.0881-4.2148,2.0844-8.1484.9948-3.93,1.7528-7.343h10.2328q.7572,3.411,1.7054,7.343.946,3.9327,1.99,8.1484,1.0414,4.2169,2.1791,8.5746t2.3687,8.5273q1.1436-3.9794,2.2872-8.2905t2.1452-8.5746q.9993-4.2638,1.9054-8.29t1.6684-7.4378h14.6858q-2.0918,7.39-4.3243,14.6386T123.7348,90.1014ZM178.3823,88.68q-.0955,1.47-.19,2.6056H146.1681a9.3757,9.3757,0,0,0,4.0741,6.9165q3.6,2.5583,9.6643,2.5583a40.81,40.81,0,0,0,7.6271-.7107,28.7464,28.7464,0,0,0,6.1112-1.7528l1.895,11.4644a19.5078,19.5078,0,0,1-3.0319,1.137,39.7685,39.7685,0,0,1-4.2163.9949q-2.3227.4263-4.9742.71a49.7892,49.7892,0,0,1-5.3059.2843,31.4054,31.4054,0,0,1-11.7013-1.99,22.78,22.78,0,0,1-8.2431-5.448,21.6139,21.6139,0,0,1-4.8321-8.1957,32.4613,32.4613,0,0,1-1.5633-10.2327,30.4641,30.4641,0,0,1,2.037-11.6065,24.8737,24.8737,0,0,1,5.3533-8.29,22.2616,22.2616,0,0,1,7.6272-5.0216,23.88,23.88,0,0,1,8.8589-1.7054q10.61,0,16.77,6.49,6.1578,6.491,6.1586,19.0917Q178.477,87.2123,178.3823,88.68Zm50.8319,8.7641a22.8212,22.8212,0,0,1-5.069,8.243,22.2836,22.2836,0,0,1-8.1483,5.2586,30.6121,30.6121,0,0,1-10.9907,1.8475q-2.5583,0-5.3533-.2368t-5.4954-.6159q-2.7-.38-5.1637-.9t-4.3584-1.09V40.3115l14.1174-2.2739V62.8615a26.4614,26.4614,0,0,1,4.9269-1.6108,25.3035,25.3035,0,0,1,5.4953-.5684,22.5007,22.5007,0,0,1,9.38,1.8475,18.385,18.385,0,0,1,6.8217,5.2585,23.6351,23.6351,0,0,1,4.169,8.1956,37.3754,37.3754,0,0,1,1.4212,10.6592A31.5133,31.5133,0,0,1,229.2142,97.4443Zm64.8768-7.3429q-2.1384,6.4908-4.1807,11.9856t-3.7529,9.4747H275.1667q-2.37-7.1994-4.6427-14.3069-2.2738-7.106-4.1688-14.3068-1.8965,7.2015-4.0268,14.3068t-4.5,14.3069H246.8372q-1.71-3.9794-3.7055-9.4747t-4.1334-11.9856q-2.1386-6.4888-4.3717-13.7384t-4.3229-14.6386h14.8754q.7617,3.411,1.667,7.4378t1.9067,8.29q1.0015,4.2636,2.0978,8.5746,1.0949,4.3125,2.24,8.2905,1.23-4.1682,2.416-8.5273,1.1836-4.3569,2.274-8.5746,1.0881-4.2148,2.0844-8.1484.9948-3.93,1.7528-7.343h10.2328q.7573,3.411,1.7055,7.343.9459,3.9327,1.99,8.1484,1.0416,4.2169,2.1792,8.5746t2.3687,8.5273q1.1436-3.9794,2.2873-8.2905t2.145-8.5746q.9995-4.2638,1.9054-8.29T288.1,61.7244h14.6859q-2.0917,7.39-4.3244,14.6386T294.091,90.1014Zm50.0995,20.0391q-3.0334.6641-8.4326,1.5634a81.0962,81.0962,0,0,1-13.0752.9,41.4461,41.4461,0,0,1-8.7641-.8527,19.01,19.01,0,0,1-6.7745-2.795,12.7746,12.7746,0,0,1-4.3583-5.0691,17.4875,17.4875,0,0,1-1.516-7.6745,14.5375,14.5375,0,0,1,1.7528-7.39,13.49,13.49,0,0,1,4.69-4.8321,21.2137,21.2137,0,0,1,6.7271-2.6056,37.8014,37.8014,0,0,1,7.864-.8053,44.8856,44.8856,0,0,1,4.88.2369,21.8954,21.8954,0,0,1,3.4582.6158V80.1055a7.8162,7.8162,0,0,0-2.1792-5.78q-2.1807-2.1785-7.58-2.1792a48.3833,48.3833,0,0,0-7.1061.5211,30.5758,30.5758,0,0,0-6.0638,1.4686l-1.8-11.37q1.23-.3775,3.0793-.8053,1.8476-.4264,4.0267-.758t4.5953-.5685q2.4161-.2353,4.88-.2368a32.6973,32.6973,0,0,1,10.4223,1.4212,16.2013,16.2013,0,0,1,6.68,4.0741,15.0027,15.0027,0,0,1,3.553,6.4428,31.8089,31.8089,0,0,1,1.0423,8.4326Zm32.1584,1.4212h-11.716q-4.85-9.4733-9.8434-22.1709-4.9921-12.6956-9.4614-27.6664h14.97q.95,3.6952,2.2369,8.0063,1.2834,4.3125,2.6647,8.7167,1.3791,4.4058,2.76,8.5747,1.3812,4.17,2.7136,7.58,1.2346-3.411,2.6618-7.58t2.8054-8.5747q1.3791-4.4056,2.6633-8.7167t2.2355-8.0063h14.6q-4.4681,14.9716-9.4556,27.6664Q381.1959,102.0883,376.3489,111.5617ZM441.4016,88.68q-.0954,1.47-.1894,2.6056H409.1874a9.3764,9.3764,0,0,0,4.0741,6.9165q3.6,2.5583,9.6643,2.5583a40.8113,40.8113,0,0,0,7.6272-.7107,28.7482,28.7482,0,0,0,6.1112-1.7528l1.895,11.4644a19.5157,19.5157,0,0,1-3.0319,1.137,39.7743,39.7743,0,0,1-4.2163.9949q-2.3227.4263-4.9743.71a49.7888,49.7888,0,0,1-5.3058.2843,31.4054,31.4054,0,0,1-11.7013-1.99,22.7789,22.7789,0,0,1-8.2431-5.448,21.6129,21.6129,0,0,1-4.8322-8.1957,32.4642,32.4642,0,0,1-1.5633-10.2327,30.4621,30.4621,0,0,1,2.0371-11.6065,24.8721,24.8721,0,0,1,5.3533-8.29,22.2616,22.2616,0,0,1,7.6272-5.0216,23.88,23.88,0,0,1,8.8589-1.7054q10.61,0,16.77,6.49,6.158,6.491,6.1586,19.0917Q441.4964,87.2123,441.4016,88.68Zm31.8353-15.4438a27.5928,27.5928,0,0,0-5.4954-.5212,25.683,25.683,0,0,0-3.174.2369,18.7293,18.7293,0,0,0-2.795.5211v38.0885H447.655V64.3774a85.0473,85.0473,0,0,1,8.9537-2.5108,51.6181,51.6181,0,0,1,11.5118-1.1843q1.137,0,2.7477.1421t3.2214.379q1.61.2376,3.2215.5685a15.278,15.278,0,0,1,2.7476.8054L477.69,74.2312Q475.7935,73.7582,473.2369,73.2364Zm39.5566,35.8708q-5.5426,3.78-15.6808,3.781a45.0614,45.0614,0,0,1-11.038-1.137,44.5975,44.5975,0,0,1-6.1113-1.895l2.3688-11.4644a46.1811,46.1811,0,0,0,7.39,2.2266,35.8951,35.8951,0,0,0,7.485.8054,14.08,14.08,0,0,0,5.4954-.758,2.9278,2.9278,0,0,0,1.6106-2.9372q0-1.7055-2.0844-2.9846a39.73,39.73,0,0,0-6.3481-2.89,64.397,64.397,0,0,1-6.0164-2.5581,17.6648,17.6648,0,0,1-4.5953-3.1741,12.8148,12.8148,0,0,1-2.9371-4.4058,16.288,16.288,0,0,1-1.0423-6.1586,13.3176,13.3176,0,0,1,5.2111-11.0854q5.21-4.0726,14.3069-4.0741a45.9689,45.9689,0,0,1,8.7168.8053,40.7591,40.7591,0,0,1,6.6323,1.7528l-2.4635,10.9907a52.0566,52.0566,0,0,0-5.3532-1.516,29.1647,29.1647,0,0,0-6.49-.6632q-6.6331,0-6.6324,3.6952a3.8145,3.8145,0,0,0,.2842,1.5159,3.23,3.23,0,0,0,1.137,1.2791A15.92,15.92,0,0,0,498.96,79.59q1.4679.7173,3.7426,1.5752a57.978,57.978,0,0,1,7.6745,3.3916,18.3569,18.3569,0,0,1,4.7848,3.6094,11.1627,11.1627,0,0,1,2.4634,4.3021,19.0913,19.0913,0,0,1,.7106,5.482Q518.3362,105.3253,512.7935,109.1072ZM324.9567,90.054a28.1086,28.1086,0,0,0-3.7425.237,9.8041,9.8041,0,0,0-3.0794.9,5.2771,5.2771,0,0,0-2.0844,1.8,5.009,5.009,0,0,0-.758,2.8426q0,3.3174,2.2266,4.5952a12.3,12.3,0,0,0,6.1112,1.279q2.0829,0,3.9794-.0947a27.1733,27.1733,0,0,0,3.0319-.2843V90.6225q-.8526-.1889-2.5581-.379A28.6233,28.6233,0,0,0,324.9567,90.054ZM206.5221,72.62a16.6572,16.6572,0,0,0-4.311.5685,12.2646,12.2646,0,0,0-3.4583,1.4212v25.6766q1.0414.1911,2.653.3317,1.61.142,3.5056.1422,5.7782,0,8.7168-3.98,2.9357-3.9793,2.9372-10.517Q216.5654,72.62,206.5221,72.62Zm219.1041,2.4635a8.6,8.6,0,0,0-2.7477-2.1792,8.9541,8.9541,0,0,0-4.1215-.8527,9.48,9.48,0,0,0-4.0741.8054,8.43,8.43,0,0,0-2.8425,2.1317,9.5439,9.5439,0,0,0-1.7529,3.0794,20.1762,20.1762,0,0,0-.9,3.553h18.6653a14.6518,14.6518,0,0,0-.6158-3.5057A8.7865,8.7865,0,0,0,425.6262,75.0839Z" style="fill:#ffde00;fill-rule:evenodd"/></g></svg>